# xmcd
#
# Track frame offsets: 
#        150
#        14200
#        27409
#        41050
#        54942
#        68362
#        81864
#        94144
#        107846
#        121323
#        131569
#        146065
#        158466
#        173062
#        185742
#        221625
#        232954
#        246395
#
# Disc length: 3692 seconds
#
# Revision: 1
# Processed by: cddbd v1.5.2PL0 Copyright (c) Steve Scherf et al.
# Submitted via: ExactAudioCopy v0.99pb3
#
DISCID=fb0e6a12
DTITLE=Duke Ellington - Duke Ellington - Vol. 14 "Love You Madly" 1947
DTITLE=1953
DYEAR=2007
DGENRE=Jazz
TTITLE0=Sultry Serenade
TTITLE1=Hy'a Sue
TTITLE2=Golden Cress
TTITLE3=Don't Get Around Much Anymore
TTITLE4=Progressive Gavotte
TTITLE5=Love You Madly
TTITLE6=Build That Railroad (Sing That Song)
TTITLE7=Fancy Dan
TTITLE8=VIP's Boogie
TTITLE9=Monologue (Pretty And The Wolf)
TTITLE10=Jam With Sam
TTITLE11=Deep Night
TTITLE12=Please Be Kind
TTITLE13=Smada
TTITLE14=Take The 'A' Train
TTITLE15=Rock-Skippin At The Blue Note
TTITLE16=Satin Doll
TTITLE17=Skin Deep
EXTD=YEAR: 2007
EXTT0=
EXTT1=
EXTT2=
EXTT3=
EXTT4=
EXTT5=
EXTT6=
EXTT7=
EXTT8=
EXTT9=
EXTT10=
EXTT11=
EXTT12=
EXTT13=
EXTT14=
EXTT15=
EXTT16=
EXTT17=
PLAYORDER=
